<svg width="570" height="571" viewBox="0 0 570 571" fill="none" xmlns="http://www.w3.org/2000/svg">
<path d="M529.712 524.534C529.712 524.705 420.136 524.83 285.011 524.83C149.887 524.83 40.2876 524.705 40.2876 524.534C40.2876 524.363 149.842 524.238 285.011 524.238C420.181 524.238 529.712 524.374 529.712 524.534Z" fill="#242C33"/>
<path d="M170.1 106.154C175.476 112.733 178.387 120.982 178.33 129.478C178.273 134.289 177.384 139.59 180.189 143.5C182.309 146.464 186.185 147.958 187.906 151.173C189.981 155.037 188.214 159.928 189.491 164.123C191.292 170.074 198.269 172.57 202.407 177.21C204.171 179.262 205.405 181.715 206.002 184.354C206.598 186.993 206.538 189.739 205.827 192.349C205.073 194.949 203.71 197.332 201.85 199.299C199.99 201.266 197.688 202.76 195.134 203.658C192.407 204.733 189.366 204.684 186.675 203.521C183.882 202.131 182.115 199.269 180.747 196.476C178 190.981 153.866 161.284 152.498 155.288" fill="#242C33"/>
<path d="M152.543 99.1544C142.671 97.5584 133.163 104.113 129.025 113.211C124.887 122.308 124.75 132.591 124.465 142.623C124.18 152.655 123.45 163.051 118.354 171.647C115.117 177.108 110.101 181.907 109.314 188.188C108.607 193.82 111.526 199.497 110.557 205.095C109.713 209.974 105.997 214.215 106.145 219.151C106.327 225.102 112.449 229.582 118.389 229.741C124.328 229.901 129.891 226.789 134.554 223.095C142.15 217.064 148.229 209.337 152.304 200.535" fill="#242C33"/>
<path d="M136.298 122.684C135.988 120.201 136.18 117.68 136.863 115.272C137.545 112.865 138.705 110.619 140.272 108.667C141.839 106.716 143.783 105.1 145.986 103.914C148.19 102.729 150.61 101.998 153.102 101.765C163.054 100.807 171.912 108.229 173.405 118.124C174.716 126.799 175.834 135.555 175.799 138.735C175.674 148.323 170.099 152.05 167.819 153.179C166.999 153.473 166.151 153.683 165.289 153.806V153.874L167.409 164.887C168.378 172.103 164.354 178.567 157.149 179.581C149.944 180.596 144.278 175.09 143.173 167.874L136.298 122.684Z" fill="#FFBE9D"/>
<path d="M171.445 122.319C171.285 122.547 170.02 121.875 168.401 122.114C166.782 122.353 165.699 123.334 165.494 123.163C165.289 122.992 165.494 122.707 165.995 122.251C166.619 121.644 167.416 121.245 168.275 121.111C169.119 120.981 169.982 121.125 170.738 121.521C171.308 121.886 171.524 122.228 171.445 122.319Z" fill="#242C33"/>
<path d="M157.012 125.83C156.852 126.058 155.587 125.374 153.957 125.614C152.327 125.853 151.266 126.845 151.061 126.674C150.856 126.503 151.061 126.207 151.563 125.762C152.186 125.155 152.983 124.756 153.843 124.622C154.688 124.502 155.549 124.649 156.305 125.044C156.864 125.397 157.092 125.728 157.012 125.83Z" fill="#242C33"/>
<path d="M162.928 134.529C163.744 134.136 164.606 133.849 165.493 133.674C165.904 133.571 166.28 133.434 166.314 133.138C166.277 132.721 166.119 132.325 165.858 131.998L164.16 128.965C161.8 124.725 160.033 121.213 160.204 121.111C160.375 121.008 162.484 124.394 164.764 128.635C165.345 129.684 165.904 130.687 166.405 131.633C166.737 132.097 166.898 132.66 166.861 133.229C166.824 133.385 166.751 133.529 166.648 133.652C166.545 133.775 166.415 133.872 166.269 133.936C166.046 134.033 165.813 134.102 165.573 134.141C164.712 134.385 163.823 134.515 162.928 134.529Z" fill="#242C33"/>
<path d="M165.197 153.817C165.197 153.817 159.007 155.242 150.479 151.674C150.479 151.674 154.162 159.597 165.778 156.781L165.197 153.817Z" fill="#EB996E"/>
<path d="M156.18 121.578C156.088 122.046 154.436 122.068 152.566 122.581C150.696 123.094 149.226 123.824 148.918 123.471C148.781 123.3 148.986 122.844 149.545 122.331C150.297 121.687 151.186 121.224 152.144 120.975C153.102 120.726 154.104 120.698 155.074 120.894C155.826 121.065 156.18 121.362 156.18 121.578Z" fill="#242C33"/>
<path d="M170.111 118.728C169.883 119.139 168.708 118.922 167.363 119.093C166.018 119.264 164.912 119.709 164.593 119.355C164.456 119.184 164.593 118.797 165.026 118.375C165.624 117.845 166.374 117.518 167.169 117.44C167.955 117.345 168.75 117.493 169.449 117.862C169.997 118.17 170.213 118.523 170.111 118.728Z" fill="#242C33"/>
<path d="M153.49 127.928C153.515 128.104 153.575 128.274 153.666 128.427C153.757 128.58 153.878 128.714 154.021 128.82C154.164 128.926 154.327 129.002 154.5 129.045C154.673 129.088 154.853 129.095 155.029 129.068C155.2 129.048 155.366 128.995 155.516 128.91C155.666 128.826 155.798 128.713 155.904 128.577C156.01 128.441 156.088 128.286 156.134 128.119C156.179 127.953 156.191 127.78 156.169 127.609C156.115 127.254 155.923 126.935 155.635 126.721C155.346 126.507 154.985 126.417 154.63 126.469C154.458 126.487 154.292 126.54 154.141 126.623C153.99 126.707 153.857 126.821 153.751 126.957C153.644 127.093 153.566 127.249 153.522 127.416C153.477 127.583 153.466 127.757 153.49 127.928Z" fill="#242C33"/>
<path d="M167.865 124.816C167.918 125.171 168.11 125.49 168.399 125.704C168.687 125.917 169.049 126.008 169.404 125.956C169.575 125.936 169.741 125.883 169.891 125.798C170.041 125.714 170.173 125.601 170.279 125.465C170.385 125.329 170.463 125.174 170.509 125.007C170.554 124.841 170.566 124.667 170.544 124.497C170.49 124.142 170.298 123.822 170.01 123.609C169.721 123.395 169.36 123.304 169.005 123.357C168.833 123.375 168.667 123.427 168.516 123.511C168.365 123.595 168.232 123.708 168.126 123.845C168.019 123.981 167.941 124.137 167.897 124.304C167.852 124.471 167.841 124.645 167.865 124.816Z" fill="#242C33"/>
<path d="M165.483 137.675C165.035 137.536 164.553 137.558 164.12 137.737C163.687 137.916 163.33 138.241 163.111 138.655C162.903 139.036 162.818 139.473 162.869 139.904C162.92 140.335 163.104 140.739 163.396 141.061C163.707 141.366 164.116 141.551 164.551 141.582C164.985 141.613 165.416 141.489 165.768 141.232C166.207 140.831 166.473 140.275 166.509 139.681C166.586 139.137 166.456 138.584 166.144 138.131C165.984 137.91 165.755 137.747 165.493 137.669C165.232 137.591 164.951 137.601 164.696 137.698" fill="#EB996E"/>
<path d="M172.14 110.315C171.245 106.703 169.012 103.566 165.893 101.537C163.339 99.6926 160.306 98.6275 157.16 98.4704C153.995 98.3341 150.904 99.4572 148.565 101.594C146.905 103.239 145.955 105.47 145.92 107.807L146.102 106.211C145.623 107.51 145.623 108.937 146.102 110.235C146.365 110.931 146.684 111.637 146.957 112.333C147.774 114.342 149.287 115.99 151.221 116.973C152.097 117.442 153.077 117.682 154.071 117.668C154.568 117.658 155.058 117.54 155.505 117.321C155.952 117.102 156.345 116.789 156.659 116.403C157.367 115.167 157.586 113.711 157.274 112.321C158.022 113.695 159.09 114.868 160.387 115.741C161.049 116.165 161.836 116.347 162.617 116.257C163.398 116.168 164.124 115.813 164.673 115.251C165.608 114.111 165.243 112.31 164.673 110.896C165.555 112.23 166.79 113.292 168.241 113.963C168.623 114.182 169.046 114.319 169.484 114.367C169.921 114.414 170.364 114.369 170.783 114.237C171.119 114.07 171.412 113.83 171.641 113.534C171.87 113.237 172.029 112.893 172.106 112.527C172.275 111.8 172.287 111.046 172.14 110.315Z" fill="#242C33"/>
<path d="M163.898 113.347C163.795 113.347 163.818 111.991 163.374 109.927C162.861 107.186 161.482 104.68 159.441 102.78C158.319 101.759 156.965 101.027 155.496 100.648C154.294 100.353 153.041 100.322 151.825 100.557C150.705 100.819 149.634 101.261 148.656 101.868C148.656 101.868 148.85 101.583 149.352 101.218C150.072 100.714 150.88 100.351 151.734 100.146C153.013 99.8469 154.343 99.8469 155.622 100.146C157.197 100.539 158.648 101.324 159.84 102.426C161.977 104.405 163.373 107.056 163.795 109.939C163.931 110.791 164 111.652 164.001 112.515C164.015 112.796 163.98 113.078 163.898 113.347Z" fill="#455A64"/>
<path d="M268.892 246.26L225.059 228.875C225.059 228.875 202.612 199.429 203.08 198.859L187.313 216.118L210.227 247.115L263.34 259.564L272.46 257.033C270.454 247.354 268.892 246.26 268.892 246.26Z" fill="#FFBE9D"/>
<path d="M173.359 162.253L167.386 159.973L141.599 163.245V167.805L140.858 167.896C135.299 169.078 129.968 171.149 125.069 174.03C120.48 176.831 116.834 180.941 114.599 185.83C112.365 190.72 111.644 196.167 112.529 201.469C113.578 207.99 115.607 215.913 119.529 220.496C127.018 229.263 133.858 218.433 133.858 218.433C133.858 218.433 138.555 229.149 138.282 234.222C138.054 238.474 136.184 247.32 135.58 250.079C135.555 250.189 135.553 250.303 135.574 250.415C135.594 250.526 135.638 250.631 135.7 250.725C135.763 250.819 135.845 250.899 135.94 250.96C136.035 251.022 136.141 251.063 136.252 251.082L190.653 261.148L190.915 247.845L189.183 193.125L186.732 171.875C186.732 171.875 186.811 161.729 173.359 162.253Z" fill="#1E82A9"/>
<path d="M185.899 168.341L206.647 198.312L189.946 218.649L185.899 168.341Z" fill="#1E82A9"/>
<path d="M190.38 231.406C190.305 230.763 190.279 230.115 190.3 229.468C190.3 228.123 190.3 226.356 190.232 224.201C190.131 218.418 189.716 212.645 188.989 206.907C188.134 200.181 186.823 194.173 185.831 189.807L184.623 184.677C184.448 184.057 184.318 183.424 184.235 182.785C184.495 183.377 184.701 183.991 184.851 184.62C185.204 185.76 185.683 187.55 186.23 189.716C187.702 195.341 188.822 201.052 189.582 206.816C190.315 212.578 190.673 218.381 190.654 224.19C190.654 226.47 190.597 228.225 190.528 229.468C190.534 230.117 190.484 230.765 190.38 231.406Z" fill="#242C33"/>
<path d="M139.308 185.84C139.308 185.931 137.735 185.92 135.215 186.045C131.928 186.223 128.658 186.646 125.434 187.311C122.21 187.987 119.04 188.898 115.949 190.035C113.578 190.913 112.153 191.563 112.107 191.472C112.4 191.243 112.722 191.055 113.065 190.913C113.692 190.571 114.627 190.138 115.801 189.648C121.952 187.107 128.527 185.746 135.181 185.635C136.458 185.635 137.461 185.635 138.202 185.703C138.575 185.691 138.949 185.737 139.308 185.84Z" fill="#FAFAFA"/>
<path d="M187.359 199.554C186.525 199.857 185.655 200.049 184.771 200.124C180.555 200.74 176.285 200.885 172.037 200.557C171.15 200.542 170.269 200.412 169.415 200.17C170.295 200.092 171.18 200.092 172.06 200.17C173.679 200.17 175.924 200.17 178.398 200.17C180.872 200.17 183.106 199.919 184.725 199.771C185.595 199.619 186.476 199.546 187.359 199.554Z" fill="#FAFAFA"/>
<path d="M196.878 186C195.622 187.452 194.116 188.668 192.432 189.591C190.843 190.665 189.069 191.438 187.2 191.871C187.131 191.711 189.48 190.731 192.124 189.043C194.769 187.356 196.764 185.863 196.878 186Z" fill="#FAFAFA"/>
<path d="M188.499 172.103C184.902 175.338 180.319 177.266 175.491 177.575C175.491 177.393 178.626 176.914 182.229 175.375C185.831 173.836 188.385 171.955 188.499 172.103Z" fill="#FAFAFA"/>
<path d="M189.628 222.765C189.292 222.99 188.933 223.177 188.556 223.323C187.838 223.665 186.8 224.087 185.478 224.577C182.042 225.812 178.496 226.713 174.887 227.268C171.279 227.825 167.625 228.027 163.978 227.872C162.575 227.815 161.447 227.712 160.672 227.61C160.266 227.583 159.864 227.51 159.475 227.393C159.475 227.29 161.207 227.393 164.035 227.461C171.283 227.529 178.494 226.42 185.387 224.178C187.986 223.323 189.593 222.673 189.628 222.765Z" fill="#FAFAFA"/>
<path d="M190.049 238.212C190.049 238.212 189.889 238.326 189.559 238.497L188.1 239.135C186.846 239.728 184.987 240.503 182.662 241.415C180.336 242.327 177.52 243.205 174.351 244.071C167.461 245.927 160.389 247.024 153.261 247.343C149.978 247.468 147.025 247.457 144.54 247.343C142.055 247.229 140.06 247.047 138.681 246.853L137.096 246.636C136.909 246.623 136.725 246.584 136.549 246.522C136.734 246.493 136.922 246.493 137.107 246.522L138.703 246.625C140.083 246.739 142.123 246.853 144.552 246.921C146.98 246.99 149.978 246.921 153.238 246.807C156.499 246.693 160.078 246.283 163.806 245.667C167.534 245.052 171.045 244.311 174.214 243.513C177.384 242.715 180.188 241.814 182.514 240.982C184.839 240.15 186.732 239.454 188.008 238.93L189.49 238.348C189.671 238.283 189.859 238.238 190.049 238.212Z" fill="#FAFAFA"/>
<path d="M90.0599 480.564L83.8925 508.414L72.6407 529.037C72.4493 529.389 72.3323 529.777 72.2967 530.176C72.2612 530.575 72.3079 530.977 72.4339 531.358C72.56 531.738 72.7628 532.089 73.0297 532.387C73.2967 532.686 73.6221 532.927 73.9859 533.095C74.4082 533.289 74.8708 533.379 75.3349 533.357C75.7991 533.335 76.2512 533.203 76.6535 532.97C81.8747 529.96 101.038 518.754 101.369 516.691C101.768 514.308 109.827 487.746 109.827 487.746L90.0599 480.564Z" fill="#1E82A9"/>
<g opacity="0.6">
<path d="M73.9863 533.095L101.837 514.855L101.54 515.995C101.296 517.013 100.698 517.91 99.8529 518.526C97.5729 520.156 91.2231 524.534 76.7451 532.993C76.3295 533.236 75.86 533.373 75.3786 533.391C74.8972 533.409 74.4189 533.307 73.9863 533.095Z" fill="white"/>
</g>
<g opacity="0.6">
<path d="M98.3361 504.493C97.9339 504.66 97.6078 504.971 97.4205 505.364C97.2332 505.758 97.198 506.207 97.3215 506.625C97.4737 507.031 97.7759 507.364 98.166 507.555C98.5562 507.746 99.0046 507.78 99.4191 507.651C99.8497 507.472 100.198 507.14 100.397 506.718C100.595 506.296 100.628 505.816 100.491 505.371C100.289 504.967 99.9401 504.656 99.5162 504.501C99.0922 504.346 98.6251 504.36 98.2107 504.538" fill="white"/>
</g>
<path d="M83.2884 522.539C82.8285 521.514 82.1831 520.582 81.3846 519.792C80.465 519.151 79.4321 518.691 78.3408 518.435C78.3408 518.355 78.7398 518.23 79.4124 518.298C80.2877 518.411 81.1114 518.775 81.7836 519.347C82.461 519.897 82.9608 520.634 83.22 521.467C83.4138 522.117 83.3568 522.539 83.2884 522.539Z" fill="#242C33"/>
<path d="M80.4042 525.765C80.2446 525.856 79.572 524.739 78.2382 523.975C77.3874 523.58 76.5115 523.241 75.6162 522.961C76.1083 522.8 76.6318 522.758 77.1433 522.839C77.6548 522.92 78.1395 523.122 78.5574 523.428C80.0736 524.306 80.5638 525.731 80.4042 525.765Z" fill="#242C33"/>
<path d="M88.122 518.686C87.1526 517.61 86.1006 516.611 84.9756 515.699C83.7362 514.943 82.4403 514.284 81.0996 513.727C82.6414 513.696 84.1443 514.213 85.3404 515.186C86.6591 515.979 87.6469 517.222 88.122 518.686Z" fill="#242C33"/>
<path d="M90.7096 510.375C90.5956 510.523 89.2162 509.509 87.2896 508.95C85.363 508.392 83.6188 508.483 83.6074 508.289C84.8763 507.96 86.2103 507.981 87.4685 508.348C88.7267 508.715 89.8623 509.416 90.7552 510.375H90.7096Z" fill="#242C33"/>
<path d="M92.7277 502.247C91.6157 501.56 90.4153 501.026 89.1595 500.662C87.8659 500.486 86.5544 500.486 85.2607 500.662C85.2607 500.594 85.6141 500.32 86.3437 500.104C87.3028 499.843 88.3095 499.811 89.2833 500.009C90.2572 500.207 91.1713 500.63 91.9525 501.244C92.5339 501.791 92.7733 502.201 92.7277 502.247Z" fill="#242C33"/>
<path d="M89.5814 499.123C89.5822 498.762 89.6599 498.404 89.8094 498.075C90.1324 497.134 90.6445 496.268 91.3142 495.532C91.7523 494.949 92.3687 494.525 93.0698 494.324C93.3085 494.285 93.5534 494.318 93.7729 494.42C93.9924 494.522 94.1764 494.687 94.301 494.894C94.5105 495.319 94.5552 495.806 94.4264 496.262C94.1341 497.176 93.533 497.961 92.7261 498.481C91.9191 499.001 90.9566 499.224 90.0032 499.112C89.063 498.978 88.1835 498.569 87.4755 497.936C86.7675 497.303 86.2626 496.475 86.0246 495.555C85.9698 495.322 85.9649 495.079 86.0101 494.843C86.0552 494.608 86.1495 494.384 86.2868 494.187C86.4443 494.003 86.6562 493.874 86.892 493.819C87.1277 493.764 87.3749 493.785 87.5978 493.879C88.2421 494.201 88.7921 494.684 89.1938 495.282C89.798 496.072 90.2573 496.964 90.5504 497.915C90.6892 498.255 90.7553 498.62 90.7442 498.987C90.2846 497.758 89.6428 496.605 88.8404 495.567C88.4667 495.079 87.9821 494.689 87.4268 494.427C87.3047 494.374 87.1687 494.362 87.0392 494.393C86.9097 494.423 86.7937 494.495 86.7086 494.598C86.6289 494.732 86.5777 494.881 86.558 495.036C86.5384 495.191 86.5509 495.348 86.5946 495.498C86.8324 496.272 87.2838 496.963 87.8969 497.491C88.51 498.02 89.2599 498.364 90.0602 498.485C90.8665 498.579 91.6808 498.396 92.3702 497.968C93.0596 497.539 93.5835 496.89 93.8564 496.125C93.9668 495.816 93.9668 495.477 93.8564 495.168C93.7917 495.051 93.6921 494.957 93.5714 494.9C93.4508 494.843 93.3152 494.825 93.1838 494.848C92.5896 495.012 92.0602 495.354 91.6676 495.829C90.7931 496.803 90.0879 497.916 89.5814 499.123Z" fill="#242C33"/>
<g opacity="0.3">
<path d="M89.3074 483.585L87.9736 489.969L108.14 493.321L109.827 487.746L90.0256 480.564L89.3074 483.585Z" fill="black"/>
</g>
<path d="M180.12 490.87L178.455 513.123C178.455 513.123 200.526 522.243 200.617 526.438L157.297 524.762L158.437 489.969L180.12 490.87Z" fill="#1E82A9"/>
<g opacity="0.6">
<path d="M165.174 510.729C164.754 510.841 164.389 511.104 164.15 511.468C163.91 511.831 163.812 512.27 163.875 512.701C163.971 513.125 164.224 513.496 164.584 513.74C164.944 513.983 165.384 514.08 165.813 514.012C166.26 513.893 166.647 513.613 166.9 513.226C167.152 512.838 167.253 512.371 167.181 511.914C167.037 511.481 166.731 511.121 166.327 510.908C165.923 510.696 165.453 510.648 165.015 510.774" fill="white"/>
</g>
<g opacity="0.6">
<path d="M157.32 524.762L157.571 521.251L199.01 524.135C199.01 524.135 200.914 525.047 200.64 526.415L157.32 524.762Z" fill="white"/>
</g>
<path d="M179.185 512.929C179.185 513.145 178.114 513.202 177.054 513.841C175.993 514.479 175.401 515.346 175.207 515.254C175.013 515.163 175.378 513.955 176.677 513.202C177.977 512.45 179.242 512.735 179.185 512.929Z" fill="#242C33"/>
<path d="M183.654 515.015C183.654 515.232 182.765 515.551 182.012 516.417C181.26 517.284 181.02 518.218 180.804 518.207C180.587 518.196 180.507 516.987 181.465 515.927C182.423 514.867 183.654 514.787 183.654 515.015Z" fill="#242C33"/>
<path d="M186.025 520.521C185.831 520.521 185.58 519.484 186.161 518.355C186.743 517.227 187.757 516.793 187.837 516.976C187.917 517.158 187.29 517.751 186.823 518.686C186.355 519.621 186.23 520.51 186.025 520.521Z" fill="#242C33"/>
<path d="M178.98 507.822C178.889 508.004 177.931 507.673 176.7 507.708C175.469 507.742 174.557 508.084 174.42 507.901C174.283 507.719 175.241 507.001 176.7 506.978C178.159 506.955 179.117 507.662 178.98 507.822Z" fill="#242C33"/>
<g opacity="0.3">
<path d="M179.812 495.282L179.516 499.249L158.255 498.223L158.403 493.64L179.812 495.282Z" fill="black"/>
</g>
<path d="M179.265 503.319C178.548 503.492 177.798 503.46 177.099 503.227C176.308 503.063 175.542 502.799 174.819 502.441C174.397 502.233 173.989 501.997 173.599 501.734C173.361 501.588 173.146 501.407 172.96 501.198C172.835 501.035 172.767 500.834 172.767 500.628C172.767 500.422 172.835 500.222 172.96 500.058C173.071 499.914 173.215 499.798 173.38 499.721C173.544 499.644 173.725 499.607 173.907 499.614C174.181 499.625 174.453 499.671 174.716 499.75C175.172 499.884 175.615 500.059 176.038 500.275C176.758 500.627 177.417 501.092 177.988 501.654C178.957 502.623 179.265 503.433 179.196 503.467C179.128 503.501 178.638 502.851 177.646 502.042C177.064 501.587 176.428 501.204 175.753 500.902C175.351 500.735 174.94 500.59 174.522 500.469C174.066 500.332 173.679 500.32 173.553 500.469C173.428 500.617 173.553 500.583 173.553 500.719C173.69 500.87 173.847 501 174.021 501.107C174.386 501.361 174.767 501.594 175.161 501.802C175.818 502.165 176.509 502.463 177.224 502.692C177.918 502.852 178.6 503.061 179.265 503.319Z" fill="#242C33"/>
<path d="M178.979 503.615C178.601 502.976 178.429 502.235 178.489 501.495C178.494 500.693 178.625 499.896 178.877 499.135C179.04 498.689 179.243 498.258 179.481 497.847C179.609 497.565 179.807 497.32 180.057 497.137C180.306 496.953 180.599 496.836 180.906 496.798C181.101 496.81 181.288 496.878 181.445 496.993C181.603 497.108 181.724 497.266 181.795 497.448C181.894 497.703 181.956 497.972 181.978 498.246C182.053 498.729 182.053 499.221 181.978 499.705C181.825 500.51 181.477 501.266 180.963 501.905C180.074 503.045 179.185 503.216 179.162 503.148C179.139 503.079 179.846 502.657 180.541 501.597C180.94 500.993 181.201 500.308 181.305 499.591C181.363 499.175 181.363 498.753 181.305 498.337C181.248 497.881 181.088 497.493 180.917 497.539C180.746 497.584 180.325 497.858 180.131 498.223C179.908 498.587 179.714 498.969 179.549 499.363C179.286 500.051 179.117 500.772 179.048 501.506C178.9 502.783 179.093 503.615 178.979 503.615Z" fill="#242C33"/>
<path d="M135.341 250.877C135.341 250.877 128.501 251.185 123.941 274.578C119.381 297.97 84.6221 487.518 84.6221 487.518L109.827 487.746L157.32 307.535L154.162 493.355L179.766 495.316C179.766 495.316 198.975 289.785 199.146 277.827C199.374 262.915 190.813 247.833 190.813 247.833L135.341 250.877Z" fill="#242C33"/>
<path d="M169.985 248.882C170.145 248.882 167.523 262.277 164.137 278.727C160.751 295.177 157.878 308.493 157.719 308.458C157.559 308.424 160.17 295.063 163.556 278.613C166.941 262.163 169.86 248.848 169.985 248.882Z" fill="#455A64"/>
<path d="M173.906 252.222C173.906 252.154 174.59 251.949 175.377 252.644C175.6 252.847 175.777 253.095 175.895 253.373C176.013 253.65 176.07 253.95 176.061 254.251C176.032 254.633 175.896 254.998 175.668 255.305C175.44 255.611 175.13 255.847 174.773 255.984C174.425 256.142 174.039 256.199 173.66 256.149C173.281 256.098 172.924 255.943 172.63 255.699C172.409 255.492 172.235 255.241 172.119 254.962C172.003 254.683 171.948 254.382 171.957 254.08C171.957 253.032 172.664 252.667 172.675 252.735C172.483 253.154 172.382 253.608 172.379 254.069C172.394 254.3 172.455 254.527 172.559 254.734C172.663 254.942 172.807 255.126 172.983 255.277C173.208 255.432 173.468 255.528 173.74 255.557C174.012 255.585 174.286 255.544 174.538 255.439C174.79 255.333 175.011 255.166 175.182 254.953C175.352 254.739 175.467 254.486 175.514 254.217C175.531 253.986 175.501 253.754 175.426 253.535C175.352 253.316 175.234 253.113 175.081 252.94C174.522 252.291 173.895 252.313 173.906 252.222Z" fill="#455A64"/>
<path d="M172.824 261.479C172.824 261.411 173.53 261.479 173.964 262.425C174.074 262.695 174.124 262.986 174.11 263.278C174.096 263.569 174.019 263.854 173.884 264.112C173.688 264.42 173.412 264.668 173.085 264.83C172.759 264.992 172.394 265.062 172.031 265.033C171.668 265.004 171.319 264.876 171.023 264.664C170.727 264.451 170.494 264.162 170.35 263.827C170.259 263.553 170.229 263.261 170.262 262.974C170.296 262.686 170.392 262.409 170.544 262.163C171.079 261.308 171.809 261.331 171.786 261.399C171.763 261.468 171.239 261.627 170.908 262.357C170.741 262.766 170.741 263.224 170.908 263.634C171.027 263.86 171.202 264.052 171.415 264.193C171.628 264.334 171.874 264.418 172.129 264.439C172.384 264.459 172.639 264.415 172.872 264.31C173.106 264.205 173.308 264.043 173.462 263.839C173.677 263.449 173.73 262.991 173.61 262.562C173.28 261.787 172.767 261.559 172.824 261.479Z" fill="#455A64"/>
<path d="M148.667 252.45C148.62 252.842 148.521 253.225 148.371 253.59C148.015 254.634 147.569 255.645 147.037 256.611C145.298 259.836 142.786 262.579 139.726 264.595C136.666 266.61 133.154 267.835 129.504 268.159C128.408 268.255 127.305 268.255 126.209 268.159C125.823 268.147 125.44 268.086 125.069 267.977C125.069 267.863 126.791 268.057 129.515 267.715C133.066 267.284 136.469 266.035 139.456 264.067C142.443 262.099 144.932 259.465 146.729 256.372C148.063 254.069 148.565 252.416 148.667 252.45Z" fill="#455A64"/>
<path d="M197.71 269.083C197.71 269.083 197.414 268.946 196.946 268.627C196.293 268.157 195.683 267.631 195.122 267.054C193.248 265.156 191.785 262.891 190.825 260.402C189.866 257.913 189.431 255.252 189.548 252.587C189.574 251.785 189.677 250.987 189.856 250.204C189.981 249.646 190.061 249.349 190.106 249.361C190.152 249.372 189.97 250.603 189.97 252.598C189.971 257.835 191.917 262.885 195.43 266.769C196.764 268.239 197.767 268.992 197.71 269.083Z" fill="#455A64"/>
<path d="M286.14 269.744C286.516 268.832 286.414 269.197 280.372 265.184C280.372 265.184 289.036 270.884 288.135 268.171C287.356 267.143 286.403 266.26 285.319 265.56C287.599 266.905 288.922 267.054 289.321 266.506C290.005 265.56 285.046 261.946 282.686 260.316C284.843 261.86 287.106 263.25 289.457 264.477C290.86 264.91 290.187 263.269 289.241 262.072C288.295 260.875 280.953 253.807 278.981 251.698C278.793 251.537 278.642 251.338 278.539 251.114C278.436 250.889 278.382 250.645 278.382 250.398C278.382 250.151 278.436 249.907 278.539 249.683C278.642 249.458 278.793 249.259 278.981 249.099C282.515 246.819 284.065 243.182 284.02 241.985C283.98 241.716 283.857 241.465 283.666 241.271C283.476 241.076 283.229 240.946 282.96 240.901C282.692 240.855 282.416 240.896 282.172 241.017C281.928 241.138 281.729 241.333 281.603 241.575C280.711 242.683 279.671 243.665 278.513 244.493C277.615 245.193 276.606 245.737 275.527 246.1C274.273 246.511 268.105 246.169 266.783 245.496L262.576 259.758C262.576 259.758 277.841 266.894 280.736 268.285C284.293 269.972 285.878 270.439 286.14 269.744Z" fill="#FFBE9D"/>
<path d="M277.624 263.075C277.498 263.246 279.482 264.694 282.047 266.324C284.612 267.954 286.767 269.128 286.869 268.957C286.972 268.786 284.988 267.327 282.435 265.708C279.881 264.09 277.738 262.858 277.624 263.075Z" fill="#EB996E"/>
<path d="M279.06 260.282C278.946 260.453 280.975 262.117 283.62 264.01C286.265 265.902 288.454 267.304 288.568 267.145C288.682 266.985 286.664 265.309 284.008 263.417C281.352 261.525 279.186 260.122 279.06 260.282Z" fill="#EB996E"/>
<path d="M280.577 257.455C280.463 257.614 282.356 259.233 284.807 261.057C287.258 262.881 289.367 264.226 289.458 264.067C289.549 263.907 287.691 262.288 285.24 260.464C282.789 258.64 280.703 257.295 280.577 257.455Z" fill="#EB996E"/>
<path d="M125.32 205.801L136.515 206.417C137.307 209.542 138.368 212.594 139.684 215.537C148.701 199.896 155.644 178.932 157.422 170.507C157.171 169.679 156.864 168.744 156.499 167.703C156.226 166.129 156.272 164.516 156.636 162.96C156.943 161.091 157.468 158.56 157.616 157.397C158.106 153.84 158.676 153.27 159.896 153.681C161.583 154.228 159.201 163.678 160.58 163.884C161.332 163.986 162.233 160.749 162.507 158.092C162.78 155.436 163.966 147.274 164.844 146.692C166.132 145.894 167.249 147.16 166.93 149.805C166.611 152.449 166.189 160.464 167.591 160.566C168.993 160.669 170.133 147.126 170.133 147.126C170.133 147.126 169.917 144.184 171.535 144.253C174.465 144.378 172.185 158.662 171.934 160.019C171.752 160.954 173.28 161.159 173.416 160.11C173.553 159.061 174.26 146.556 177.235 146.658C179.515 146.738 175.468 158.423 176.757 161.136C178.045 163.849 178.934 151.936 181.123 152.096C181.932 152.164 182.536 152.324 181.043 159.061C179.585 164.419 177.839 169.693 175.81 174.862C172.39 193.558 157.126 253.362 133.277 242.418C119.939 236.296 113.703 205.938 113.703 205.938L125.32 205.801Z" fill="#FFBE9D"/>
<path d="M175.834 174.964C175.854 174.823 175.892 174.685 175.948 174.554C176.05 174.258 176.176 173.87 176.347 173.414C176.723 172.331 177.236 170.826 177.909 168.854C178.581 166.882 179.391 164.488 180.189 161.661C180.599 160.258 180.941 158.731 181.249 157.101C181.409 156.28 181.557 155.436 181.659 154.57C181.688 154.141 181.688 153.711 181.659 153.282C181.659 152.837 181.557 152.472 181.203 152.461C180.85 152.449 180.599 152.666 180.348 153.042C180.121 153.445 179.934 153.869 179.79 154.308C179.471 155.208 179.22 156.166 178.969 157.135C178.718 158.104 178.49 159.118 178.194 160.144C178.064 160.706 177.833 161.24 177.51 161.718C177.429 161.811 177.321 161.879 177.202 161.911C177.127 161.928 177.049 161.927 176.974 161.91C176.899 161.892 176.829 161.857 176.769 161.809C176.638 161.689 176.53 161.546 176.45 161.387C176.329 161.107 176.248 160.812 176.21 160.509C176.158 158.21 176.388 155.913 176.894 153.669C177.088 152.529 177.293 151.389 177.441 150.249C177.51 149.668 177.578 149.109 177.59 148.494C177.601 147.878 177.51 147.228 177.27 147.126C177.031 147.023 176.45 147.342 176.13 147.821C175.815 148.327 175.566 148.871 175.389 149.44C175.001 150.631 174.707 151.85 174.512 153.088C174.295 154.342 174.124 155.619 173.976 156.918C173.919 157.568 173.85 158.218 173.793 158.879L173.702 159.871C173.714 160.083 173.68 160.295 173.601 160.492C173.522 160.689 173.401 160.866 173.246 161.011C173.051 161.153 172.815 161.23 172.574 161.23C172.332 161.23 172.096 161.153 171.901 161.011C171.79 160.938 171.697 160.842 171.626 160.73C171.555 160.618 171.509 160.492 171.49 160.361C171.473 160.24 171.473 160.117 171.49 159.996V159.757L171.798 157.762C171.992 156.417 172.152 155.071 172.277 153.703C172.403 152.335 172.505 150.956 172.528 149.577C172.595 148.211 172.456 146.843 172.118 145.518C172.039 145.182 171.835 144.889 171.547 144.697C171.41 144.653 171.262 144.654 171.125 144.699C170.988 144.744 170.868 144.831 170.784 144.948C170.415 145.623 170.263 146.396 170.35 147.16C170.1 149.839 169.815 152.472 169.427 155.06C169.233 156.348 169.017 157.636 168.698 158.902C168.606 159.21 168.515 159.529 168.401 159.848C168.293 160.235 168.065 160.578 167.751 160.828C167.612 160.897 167.454 160.916 167.303 160.883C167.152 160.849 167.017 160.766 166.919 160.646C166.78 160.5 166.675 160.325 166.611 160.133C166.488 159.817 166.4 159.488 166.349 159.153C166.082 156.672 166.059 154.171 166.281 151.686C166.449 150.527 166.514 149.356 166.475 148.186C166.438 147.686 166.209 147.221 165.836 146.886C165.749 146.832 165.651 146.796 165.549 146.78C165.447 146.764 165.343 146.769 165.243 146.795C165.137 146.831 165.034 146.877 164.935 146.932C164.833 147.023 164.844 146.932 164.776 147.126C164.364 148.151 164.062 149.217 163.875 150.306C163.647 151.446 163.453 152.484 163.282 153.555C163.111 154.627 162.952 155.676 162.815 156.724C162.678 157.773 162.61 158.799 162.405 159.825C162.228 160.828 161.96 161.812 161.607 162.766C161.513 163.009 161.402 163.245 161.276 163.473C161.117 163.69 161.025 163.963 160.592 164.1C160.481 164.121 160.367 164.108 160.263 164.063C160.16 164.018 160.072 163.944 160.011 163.849C159.931 163.718 159.87 163.576 159.828 163.428C159.777 163.18 159.747 162.928 159.737 162.675C159.737 160.726 159.999 158.947 160.102 157.226C160.176 156.403 160.176 155.575 160.102 154.752C160.102 154.387 159.931 153.954 159.726 153.874C159.582 153.804 159.424 153.767 159.264 153.767C159.104 153.767 158.946 153.804 158.802 153.874C158.324 154.388 158.027 155.045 157.959 155.744C157.788 156.439 157.719 157.146 157.594 157.819C157.115 160.509 156.614 162.835 156.374 164.727C156.262 165.559 156.262 166.403 156.374 167.235C156.534 167.919 156.773 168.535 156.899 169.014C157.024 169.492 157.149 169.834 157.229 170.154C157.272 170.276 157.302 170.402 157.32 170.53C157.252 170.419 157.198 170.301 157.161 170.176L156.773 169.036C156.614 168.546 156.374 167.999 156.18 167.247C156.058 166.392 156.058 165.525 156.18 164.67C156.397 162.744 156.853 160.441 157.32 157.739C157.446 157.066 157.514 156.36 157.662 155.63C157.744 155.245 157.847 154.864 157.97 154.49C158.084 154.075 158.333 153.71 158.677 153.453C158.884 153.343 159.115 153.285 159.35 153.285C159.584 153.285 159.815 153.343 160.022 153.453C160.245 153.593 160.428 153.788 160.554 154.02C160.68 154.252 160.744 154.512 160.74 154.775C160.82 155.632 160.82 156.494 160.74 157.351C160.661 159.084 160.387 160.897 160.432 162.744C160.441 162.962 160.468 163.179 160.512 163.393C160.512 163.61 160.672 163.701 160.649 163.656C160.626 163.61 160.866 163.473 160.957 163.291C161.069 163.089 161.168 162.879 161.253 162.664C161.591 161.74 161.839 160.785 161.994 159.814C162.188 158.822 162.257 157.796 162.393 156.736C162.53 155.676 162.667 154.627 162.838 153.544C163.009 152.461 163.203 151.378 163.419 150.272C163.605 149.117 163.926 147.988 164.377 146.909C164.468 146.728 164.606 146.574 164.776 146.464C164.927 146.381 165.088 146.316 165.255 146.271C165.446 146.216 165.647 146.203 165.843 146.232C166.04 146.262 166.228 146.333 166.395 146.442C166.659 146.652 166.878 146.914 167.037 147.212C167.195 147.51 167.291 147.838 167.318 148.174C167.404 148.795 167.404 149.424 167.318 150.044C167.261 150.625 167.204 151.184 167.17 151.822C166.948 154.251 166.971 156.695 167.238 159.118C167.287 159.406 167.363 159.689 167.466 159.962C167.501 160.072 167.559 160.174 167.637 160.258C167.637 160.258 167.637 160.258 167.694 160.258C167.694 160.521 167.694 160.258 167.694 160.361C167.694 160.464 167.694 160.361 167.694 160.27C167.837 160.079 167.948 159.868 168.025 159.643C168.131 159.362 168.223 159.065 168.299 158.754C168.606 157.545 168.812 156.268 169.005 154.992C169.393 152.427 169.678 149.793 169.917 147.126V147.183C169.816 146.243 170.02 145.296 170.499 144.481C170.682 144.248 170.932 144.078 171.216 143.994C171.5 143.91 171.803 143.917 172.083 144.013C172.322 144.146 172.532 144.325 172.701 144.541C172.869 144.756 172.993 145.003 173.064 145.267C173.429 146.669 173.579 148.118 173.508 149.565C173.508 150.979 173.383 152.37 173.257 153.749C173.132 155.128 172.961 156.485 172.767 157.83C172.665 158.514 172.562 159.175 172.46 159.848C172.368 160.27 172.391 160.281 172.46 160.407C172.539 160.46 172.632 160.489 172.727 160.489C172.823 160.489 172.916 160.46 172.995 160.407C173.132 160.304 173.155 160.11 173.189 159.734L173.269 158.742L173.474 156.77C173.611 155.47 173.793 154.171 174.01 152.905C174.221 151.634 174.526 150.381 174.922 149.155C175.129 148.535 175.408 147.942 175.754 147.388C175.942 147.089 176.191 146.833 176.484 146.635C176.646 146.518 176.835 146.441 177.033 146.411C177.231 146.381 177.434 146.4 177.624 146.464C177.798 146.572 177.946 146.719 178.055 146.893C178.163 147.067 178.23 147.263 178.251 147.468C178.298 147.788 178.317 148.113 178.308 148.437C178.308 149.064 178.228 149.668 178.16 150.272C178 151.412 177.783 152.62 177.578 153.772C177.088 155.937 176.851 158.152 176.871 160.372C176.903 160.611 176.965 160.844 177.054 161.068C177.095 161.149 177.145 161.225 177.202 161.296C177.202 161.296 177.202 161.296 177.202 161.216C177.458 160.804 177.646 160.354 177.76 159.882C178.057 158.89 178.296 157.887 178.559 156.907C178.794 155.931 179.079 154.969 179.414 154.023C179.571 153.554 179.778 153.103 180.029 152.677C180.165 152.445 180.343 152.24 180.554 152.073C180.668 151.974 180.805 151.903 180.952 151.868C181.1 151.845 181.25 151.845 181.397 151.868C181.553 151.884 181.701 151.94 181.828 152.033C181.954 152.125 182.053 152.249 182.115 152.392C182.211 152.632 182.261 152.887 182.264 153.145C182.272 153.606 182.246 154.067 182.184 154.524C182.081 155.413 181.91 156.257 181.75 157.089C181.42 158.719 181.055 160.27 180.61 161.649C179.755 164.476 178.901 166.87 178.205 168.82C177.51 170.769 176.917 172.24 176.518 173.289C176.324 173.767 176.164 174.144 176.05 174.429C175.999 174.615 175.927 174.795 175.834 174.964Z" fill="#EB996E"/>
<path d="M113.601 207.09C115.767 214.739 120.007 226.538 124.556 239.01C124.699 239.411 124.959 239.762 125.301 240.016C125.644 240.27 126.054 240.417 126.48 240.438C126.907 240.458 127.329 240.352 127.695 240.132C128.061 239.913 128.353 239.589 128.535 239.203L139.684 215.617C139.684 215.617 136.993 196.237 137.221 196.932C137.449 197.628 114.216 199.44 114.216 199.44L113.601 207.09Z" fill="#1E82A9"/>
<path d="M138.726 203.293C138.726 203.385 137.335 203.795 135.135 204.639C132.26 205.73 129.489 207.081 126.859 208.674C124.231 210.275 121.752 212.106 119.449 214.146C117.682 215.708 116.667 216.78 116.599 216.711C116.53 216.643 116.792 216.392 117.226 215.879C117.836 215.166 118.483 214.485 119.164 213.838C121.411 211.675 123.888 209.763 126.551 208.138C129.215 206.533 132.043 205.219 134.987 204.217C135.877 203.91 136.783 203.651 137.7 203.442C138.032 203.338 138.378 203.288 138.726 203.293Z" fill="#FAFAFA"/>
<path d="M143.15 209.176C142.425 208.445 141.797 207.626 141.28 206.736C139.949 204.66 138.804 202.471 137.86 200.193C136.915 197.908 136.179 195.542 135.66 193.125C135.394 192.136 135.26 191.116 135.261 190.092C135.601 191.048 135.871 192.027 136.07 193.022C136.681 195.383 137.442 197.702 138.35 199.965C139.298 202.216 140.387 204.405 141.611 206.52C142.18 207.371 142.694 208.258 143.15 209.176Z" fill="#242C33"/>
<path d="M150.583 104.729C148.649 107.917 147.45 111.495 147.073 115.205C146.696 118.914 147.152 122.661 148.405 126.172C149.545 129.307 151.369 132.397 151.039 135.726C150.708 139.054 148.109 142.349 149.021 145.632C149.568 147.582 151.233 149.052 151.882 150.945C152.623 153.225 151.882 155.63 151.483 157.967C150.571 163.941 152.487 169.948 152.954 175.968C153.421 181.987 151.814 189.043 146.433 191.665C144.803 192.463 142.671 192.691 141.315 191.472C139.582 189.933 140.061 187.151 140.539 184.871C145.259 162.071 130.678 139.818 134.007 116.745C134.543 113.051 136.606 106.781 139.263 104.205C141.919 101.628 149.295 101.925 151.803 104.661" fill="#242C33"/>
<path d="M128.124 170.872C128.124 170.872 128.819 170.051 129.845 168.432C131.285 166.146 132.294 163.615 132.821 160.965C133.165 159.14 133.283 157.279 133.174 155.425C132.975 153.269 132.895 151.103 132.935 148.938C133.003 147.753 133.221 146.58 133.585 145.45C134.001 144.285 134.528 143.163 135.158 142.098C136.435 139.944 138.042 137.937 139.524 135.794C141.046 133.768 142.104 131.433 142.625 128.954C142.878 126.619 142.743 124.257 142.226 121.966C141.795 119.836 141.626 117.661 141.724 115.491C141.86 113.594 142.243 111.724 142.864 109.927C143.735 107.32 145.106 104.908 146.9 102.825C147.376 102.259 147.895 101.729 148.45 101.241C148.626 101.053 148.826 100.888 149.043 100.75C149.043 100.75 148.279 101.491 147.071 103.03C144.193 106.603 142.51 110.99 142.26 115.57C142.184 117.706 142.371 119.842 142.819 121.932C143.362 124.285 143.509 126.712 143.252 129.114C142.711 131.662 141.622 134.063 140.06 136.147C138.566 138.325 136.959 140.32 135.705 142.417C135.088 143.442 134.576 144.527 134.177 145.655C133.817 146.739 133.598 147.866 133.528 149.007C133.477 151.148 133.538 153.29 133.71 155.425C133.801 157.317 133.655 159.212 133.277 161.068C132.706 163.754 131.622 166.305 130.085 168.58C129.669 169.196 129.212 169.782 128.717 170.336C128.539 170.536 128.341 170.715 128.124 170.872Z" fill="#455A64"/>
<path d="M117.317 172.57C117.409 172.305 117.528 172.049 117.671 171.807C117.956 171.271 118.321 170.564 118.811 169.675C119.768 167.817 121.193 165.115 122.596 161.695C124.311 157.7 125.262 153.42 125.4 149.075C125.401 147.823 125.305 146.573 125.115 145.336C124.921 144.059 124.625 142.771 124.431 141.426C124.194 140.034 124.225 138.61 124.522 137.23C124.908 135.814 125.7 134.541 126.802 133.571C128.945 131.622 131.533 130.345 132.878 128.053C134.044 125.781 134.731 123.294 134.896 120.746C135.137 118.41 135.666 116.113 136.469 113.906C138.276 109.169 141.496 105.101 145.692 102.255C146.361 101.805 147.058 101.398 147.778 101.035C148.021 100.89 148.282 100.775 148.553 100.693C148.553 100.693 147.527 101.241 145.829 102.449C143.435 104.157 141.362 106.276 139.707 108.708C138.559 110.374 137.625 112.178 136.925 114.077C136.157 116.289 135.66 118.586 135.443 120.917C135.101 123.345 134.828 126.058 133.369 128.464C131.909 130.869 129.242 132.237 127.201 134.164C126.161 135.066 125.412 136.256 125.047 137.584C124.769 138.889 124.742 140.235 124.967 141.551C125.149 142.862 125.434 144.162 125.628 145.45C125.825 146.717 125.917 147.998 125.902 149.28C125.747 153.705 124.744 158.058 122.949 162.105C121.783 164.84 120.458 167.505 118.982 170.085L117.773 171.875C117.646 172.122 117.494 172.355 117.317 172.57Z" fill="#455A64"/>
<path d="M384.83 145.131C384.83 145.131 384.522 145.131 383.929 145.131C383.064 145.079 382.196 145.079 381.33 145.131C377.982 145.327 374.692 146.098 371.606 147.411C366.714 149.461 362.456 152.778 359.271 157.021C357.307 159.67 355.847 162.657 354.962 165.833C352.967 173.399 354.044 181.448 357.96 188.223C359.027 190.098 360.33 191.83 361.836 193.375C363.355 195.013 365.126 196.398 367.08 197.479C369.086 198.608 371.357 199.179 373.658 199.132C376.03 199.104 378.305 198.184 380.031 196.556C380.865 195.682 381.519 194.652 381.955 193.526C382.391 192.399 382.601 191.197 382.573 189.99C382.555 187.48 381.759 185.038 380.293 183.001C377.34 178.84 372.552 176.047 367.456 174.543C362.172 173.059 356.592 172.98 351.268 174.315C348.551 175.022 345.932 176.063 343.471 177.415C340.986 178.817 338.73 180.589 336.779 182.671C336.312 183.207 335.776 183.697 335.354 184.29L334.066 186.022C333.282 187.243 332.582 188.515 331.968 189.83C330.749 192.499 329.916 195.328 329.494 198.232C328.667 204.033 329.456 209.95 331.774 215.332C333.99 220.59 337.85 224.99 342.775 227.872C345.163 229.236 347.829 230.043 350.573 230.232C353.263 230.382 355.939 229.74 358.268 228.385C360.58 227.107 362.406 225.104 363.466 222.685C364.466 220.3 364.535 217.628 363.66 215.195C362.759 212.848 361.286 210.763 359.374 209.13C357.519 207.528 355.381 206.286 353.07 205.471C348.562 204.049 343.738 203.966 339.184 205.231C334.923 206.386 331.009 208.566 327.784 211.581C324.847 214.395 322.61 217.858 321.252 221.693C318.877 228.346 318.987 235.634 321.56 242.213C323.567 247.125 326.797 251.441 330.942 254.753C333.554 256.847 336.462 258.542 339.572 259.78C340.644 260.179 341.476 260.476 342.046 260.635L342.889 260.909C342.889 260.909 342.593 260.852 342.023 260.692C341.181 260.467 340.351 260.197 339.538 259.883C336.387 258.699 333.441 257.03 330.805 254.935C326.59 251.626 323.296 247.288 321.241 242.338C318.622 235.697 318.489 228.334 320.865 221.602C322.225 217.709 324.486 214.193 327.465 211.342C330.736 208.266 334.708 206.036 339.036 204.844C343.686 203.547 348.612 203.626 353.218 205.072C355.597 205.902 357.798 207.174 359.704 208.822C361.691 210.509 363.221 212.669 364.15 215.104C365.088 217.646 365.047 220.445 364.036 222.958C362.912 225.473 361.004 227.556 358.599 228.898C356.183 230.305 353.41 230.979 350.619 230.836C347.808 230.64 345.079 229.805 342.639 228.396C337.601 225.474 333.645 220.998 331.364 215.64C328.996 210.159 328.183 204.132 329.016 198.22C329.451 195.258 330.303 192.372 331.546 189.648C332.173 188.305 332.889 187.006 333.69 185.76L335.012 183.993C335.434 183.389 335.981 182.853 336.46 182.329C338.456 180.208 340.763 178.402 343.3 176.971C345.818 175.593 348.499 174.536 351.28 173.824C356.705 172.465 362.392 172.547 367.776 174.064C372.974 175.614 377.842 178.453 380.908 182.762C382.45 184.884 383.287 187.435 383.302 190.058C383.358 192.639 382.386 195.136 380.601 197.001C378.777 198.713 376.376 199.677 373.875 199.702C371.481 199.757 369.117 199.162 367.035 197.981C365.033 196.877 363.224 195.456 361.677 193.774C360.151 192.194 358.829 190.429 357.744 188.519C353.758 181.618 352.676 173.417 354.734 165.719C355.646 162.506 357.142 159.488 359.146 156.816C362.389 152.541 366.72 149.215 371.686 147.183C374.798 145.895 378.113 145.17 381.478 145.039C382.351 144.982 383.227 144.982 384.1 145.039L384.83 145.131Z" fill="#242C33"/>
<path d="M422.895 259.199H263.056V382.479H422.895V259.199Z" fill="#1E82A9"/>
<path d="M263.056 259.199L292.582 286.741H449.708L422.895 259.199H263.056Z" fill="#1E82A9"/>
<path d="M263.056 259.199L422.941 258.914H423.066L423.157 258.994L449.696 286.251L449.97 286.536L450.46 287.038H449.753L292.627 286.912H292.559L263.056 259.199L292.696 286.559H292.57L449.696 286.445L449.491 286.947L449.206 286.662L422.678 259.404L422.884 259.495L263.056 259.199Z" fill="#242C33"/>
<path d="M311.072 316.051C310.206 316.082 309.387 316.452 308.791 317.081C308.196 317.71 307.871 318.548 307.886 319.414C307.902 320.281 308.257 321.106 308.875 321.713C309.494 322.32 310.325 322.661 311.192 322.661C312.058 322.661 312.89 322.32 313.508 321.713C314.126 321.106 314.482 320.281 314.497 319.414C314.513 318.548 314.188 317.71 313.592 317.081C312.996 316.452 312.177 316.082 311.311 316.051" fill="#242C33"/>
<path d="M348.84 316.051C347.978 316.084 347.163 316.453 346.57 317.081C345.978 317.708 345.655 318.543 345.671 319.406C345.688 320.268 346.042 321.09 346.658 321.695C347.274 322.299 348.103 322.638 348.965 322.638C349.828 322.638 350.657 322.299 351.273 321.695C351.889 321.09 352.243 320.268 352.26 319.406C352.276 318.543 351.953 317.708 351.361 317.081C350.768 316.453 349.953 316.084 349.091 316.051" fill="#242C33"/>
<path d="M349.056 345.554C348.397 343.036 347.327 340.644 345.887 338.475C344.286 336.155 342.231 334.185 339.845 332.683C336.967 330.774 333.611 329.711 330.158 329.616C326.705 329.521 323.295 330.398 320.317 332.148C317.857 333.521 315.698 335.374 313.967 337.597C312.409 339.686 311.21 342.021 310.422 344.505C310.431 344.32 310.461 344.136 310.513 343.958C310.622 343.444 310.763 342.938 310.935 342.442C311.56 340.611 312.472 338.891 313.637 337.346C315.355 335.019 317.541 333.078 320.055 331.646C323.11 329.822 326.621 328.905 330.178 329.002C333.735 329.099 337.19 330.206 340.142 332.193C342.569 333.753 344.642 335.803 346.229 338.212C347.312 339.82 348.132 341.59 348.657 343.456C348.798 343.962 348.908 344.476 348.988 344.995C349.027 345.179 349.05 345.366 349.056 345.554Z" fill="#242C33"/>
<path opacity="0.5" d="M263.42 260.556L291.692 296.397H422.895V286.741H292.581L263.42 260.556Z" fill="black"/>
<path d="M391.374 382.205C391.214 382.205 391.077 360.762 391.077 334.325C391.077 307.888 391.214 286.445 391.374 286.445C391.533 286.445 391.681 307.877 391.681 334.325C391.681 360.773 391.545 382.205 391.374 382.205Z" fill="#242C33"/>
<path d="M416.476 354.252H402.386V370.178H416.476V354.252Z" fill="#F5F5F5"/>
<path d="M263.055 259.199L230.246 286.741H263.055V259.199Z" fill="#1E82A9"/>
<g opacity="0.4">
<path d="M263.055 259.199L230.246 286.741H263.055V259.199Z" fill="black"/>
</g>
<path d="M427.614 382.479H243.835V524.226H427.614V382.479Z" fill="#1E82A9"/>
<path opacity="0.3" d="M427.614 382.479H243.835V524.226H427.614V382.479Z" fill="black"/>
<path d="M381.57 523.223C381.41 523.223 381.273 491.634 381.273 452.668C381.273 413.703 381.41 382.102 381.57 382.102C381.729 382.102 381.866 413.692 381.866 452.668C381.866 491.645 381.729 523.223 381.57 523.223Z" fill="#242C33"/>
<path d="M412.031 491.964H397.94V507.89H412.031V491.964Z" fill="#F5F5F5"/>
<path d="M320.774 382.855H299.9V413.099H320.774V382.855Z" fill="#242C33"/>
<path d="M320.774 493.56H299.9V523.804H320.774V493.56Z" fill="#242C33"/>
<path d="M426.018 382.479H425.54H424.16L418.859 382.536L399.331 382.627L334.932 382.775L270.511 382.695L250.994 382.604L245.693 382.547L250.994 382.49L270.511 382.399L334.932 382.308L399.331 382.399L418.859 382.49L424.16 382.547H425.54L426.018 382.479Z" fill="#242C33"/>
<path d="M111.059 137.071L91.0406 132.146H91.1888C86.0199 135.434 80.0429 137.229 73.9178 137.333C70.2917 137.35 66.6835 136.823 63.2132 135.771C57.1121 133.812 51.6993 130.148 47.6146 125.21C43.5298 120.273 40.9439 114.27 40.1624 107.91C39.5486 103.1 40.0005 98.2133 41.4859 93.5973C42.9714 88.9814 45.4541 84.7487 48.758 81.1994C50.4948 79.2917 52.4413 77.5861 54.5606 76.115C55.6322 75.4424 56.7038 74.747 57.821 74.1656L59.5196 73.3448L60.3632 72.9344L61.2524 72.6152C65.83 70.8408 70.7405 70.0898 75.6392 70.415C82.2044 70.8413 88.4965 73.2014 93.7225 77.198C98.9485 81.1946 102.874 86.6487 105.006 92.873C106.19 96.3549 106.813 100.003 106.852 103.68C106.881 109.792 105.22 115.792 102.053 121.02V120.837C107.616 130.881 110.421 135.954 111.048 137.071C110.398 135.931 107.491 130.949 101.734 121.008V120.917V120.826C104.787 115.649 106.364 109.735 106.294 103.726C106.241 100.107 105.61 96.5203 104.424 93.101C102.316 87.004 98.4564 81.6644 93.3281 77.7507C88.1997 73.837 82.0308 71.5232 75.5936 71.099C70.7914 70.786 65.9787 71.5252 61.4918 73.265L60.6254 73.5728L59.7932 73.9832L58.1288 74.7812C56.9888 75.3626 55.9856 76.0352 54.9254 76.6964C52.847 78.1281 50.9351 79.7876 49.2254 81.644C45.9819 85.1283 43.5439 89.283 42.0842 93.8141C40.6244 98.3451 40.1785 103.142 40.778 107.864C41.8349 116.516 46.2737 124.397 53.1242 129.786C56.1869 132.213 59.6627 134.067 63.3842 135.258C66.7922 136.312 70.3393 136.846 73.9064 136.843C79.958 136.778 85.8747 135.046 91.0064 131.838H91.0748H91.2002L111.059 137.071Z" fill="#242C33"/>
<path d="M70.6801 88.997L71.6947 105.755C71.7352 106.416 72.016 107.039 72.4843 107.508C72.9525 107.976 73.5759 108.257 74.2369 108.297C74.9324 108.337 75.6165 108.108 76.1487 107.658C76.6809 107.209 77.0207 106.573 77.0983 105.88L78.9565 89.0882C78.9888 88.7878 78.9569 88.4839 78.8629 88.1967C78.7689 87.9096 78.615 87.6456 78.4112 87.4225C78.2075 87.1994 77.9586 87.0221 77.6812 86.9024C77.4037 86.7827 77.104 86.7234 76.8019 86.7284H72.7321C72.4465 86.7369 72.1656 86.803 71.9062 86.9228C71.6468 87.0426 71.4143 87.2136 71.2227 87.4255C71.031 87.6373 70.8842 87.8858 70.7909 88.1558C70.6977 88.4259 70.66 88.712 70.6801 88.997Z" fill="#1E82A9"/>
<path d="M78.6601 117.657C78.405 118.422 77.9287 119.095 77.2914 119.59C76.6541 120.085 75.8844 120.38 75.0795 120.437C74.2747 120.495 73.4708 120.312 72.7695 119.913C72.0682 119.514 71.501 118.916 71.1395 118.195C70.778 117.473 70.6385 116.661 70.7385 115.86C70.8386 115.06 71.1737 114.307 71.7016 113.696C72.2296 113.086 72.9265 112.646 73.7044 112.432C74.4824 112.217 75.3064 112.239 76.0723 112.492C76.5816 112.661 77.0525 112.929 77.4583 113.28C77.864 113.631 78.1966 114.058 78.437 114.538C78.6773 115.018 78.8207 115.54 78.859 116.075C78.8973 116.61 78.8297 117.148 78.6601 117.657Z" fill="#1E82A9"/>
<mask id="path-86-inside-1_22_1393" fill="white">
<path fill-rule="evenodd" clip-rule="evenodd" d="M288.491 57.7969C289.019 55.8393 289.3 53.7824 289.3 51.6607C289.3 38.5242 278.521 27.875 265.225 27.875C257.132 27.875 249.972 31.8202 245.607 37.8702C242.294 34.9415 237.92 33.1607 233.125 33.1607C223.691 33.1607 215.887 40.0531 214.589 49.0189C214.526 49.0182 214.463 49.0179 214.4 49.0179C205.536 49.0179 198.35 56.1173 198.35 64.875C198.35 67.3512 198.924 69.6949 199.949 71.783C195.807 74.0288 193 78.378 193 83.375C193 90.6731 198.988 96.5893 206.375 96.5893C210.442 96.5893 214.084 94.7962 216.537 91.9666C219.67 97.8573 225.922 101.875 233.125 101.875C238.896 101.875 244.057 99.2956 247.492 95.2401C249.664 96.1101 252.038 96.5893 254.525 96.5893C256.386 96.5893 258.183 96.3212 259.879 95.822C264.138 99.5863 269.761 101.875 275.925 101.875C289.221 101.875 300 91.2258 300 78.0893C300 69.5026 295.395 61.9787 288.491 57.7969Z"/>
</mask>
<path d="M288.491 57.7969L287.526 57.5366L287.33 58.2626L287.973 58.6522L288.491 57.7969ZM245.607 37.8702L244.945 38.6194L245.772 39.3508L246.418 38.4553L245.607 37.8702ZM214.589 49.0189L214.578 50.0189L215.454 50.0289L215.579 49.1622L214.589 49.0189ZM199.949 71.783L200.426 72.662L201.27 72.2044L200.847 71.3425L199.949 71.783ZM216.537 91.9666L217.42 91.4971L216.736 90.2106L215.782 91.3115L216.537 91.9666ZM247.492 95.2401L247.864 94.3119L247.195 94.0438L246.729 94.5938L247.492 95.2401ZM259.879 95.822L260.541 95.0727L260.127 94.7066L259.597 94.8627L259.879 95.822ZM288.3 51.6607C288.3 53.6937 288.031 55.6631 287.526 57.5366L289.457 58.0571C290.007 56.0155 290.3 53.8712 290.3 51.6607H288.3ZM265.225 28.875C277.98 28.875 288.3 39.0879 288.3 51.6607H290.3C290.3 37.9606 279.062 26.875 265.225 26.875V28.875ZM246.418 38.4553C250.601 32.6572 257.464 28.875 265.225 28.875V26.875C256.8 26.875 249.343 30.9832 244.796 37.2851L246.418 38.4553ZM233.125 34.1607C237.668 34.1607 241.809 35.847 244.945 38.6194L246.269 37.121C242.78 34.036 238.172 32.1607 233.125 32.1607V34.1607ZM215.579 49.1622C216.805 40.6901 224.186 34.1607 233.125 34.1607V32.1607C223.196 32.1607 214.969 39.416 213.6 48.8757L215.579 49.1622ZM214.4 50.0179C214.459 50.0179 214.519 50.0182 214.578 50.0189L214.601 48.019C214.534 48.0182 214.467 48.0179 214.4 48.0179V50.0179ZM199.35 64.875C199.35 56.681 206.077 50.0179 214.4 50.0179V48.0179C204.995 48.0179 197.35 55.5537 197.35 64.875H199.35ZM200.847 71.3425C199.888 69.3882 199.35 67.1949 199.35 64.875H197.35C197.35 67.5076 197.961 70.0016 199.051 72.2234L200.847 71.3425ZM194 83.375C194 78.7636 196.59 74.7421 200.426 72.662L199.472 70.9039C195.025 73.3154 192 77.9923 192 83.375H194ZM206.375 95.5893C199.529 95.5893 194 90.1094 194 83.375H192C192 91.2367 198.447 97.5893 206.375 97.5893V95.5893ZM215.782 91.3115C213.512 93.9296 210.142 95.5893 206.375 95.5893V97.5893C210.741 97.5893 214.657 95.6628 217.293 92.6216L215.782 91.3115ZM233.125 100.875C226.302 100.875 220.384 97.0703 217.42 91.4971L215.655 92.4361C218.956 98.6443 225.543 102.875 233.125 102.875V100.875ZM246.729 94.5938C243.478 98.4327 238.592 100.875 233.125 100.875V102.875C239.2 102.875 244.637 100.159 248.255 95.8864L246.729 94.5938ZM254.525 95.5893C252.167 95.5893 249.919 95.1352 247.864 94.3119L247.12 96.1684C249.408 97.0851 251.908 97.5893 254.525 97.5893V95.5893ZM259.597 94.8627C257.991 95.3352 256.289 95.5893 254.525 95.5893V97.5893C256.482 97.5893 258.374 97.3072 260.161 96.7813L259.597 94.8627ZM275.925 100.875C270.013 100.875 264.623 98.6807 260.541 95.0727L259.217 96.5713C263.652 100.492 269.509 102.875 275.925 102.875V100.875ZM299 78.0893C299 90.6621 288.68 100.875 275.925 100.875V102.875C289.762 102.875 301 91.7894 301 78.0893H299ZM287.973 58.6522C294.593 62.6624 299 69.8705 299 78.0893H301C301 69.1347 296.196 61.295 289.009 56.9415L287.973 58.6522Z" fill="#1E82A9" mask="url(#path-86-inside-1_22_1393)"/>
<path d="M207.05 70.2609V69.423H208.491V62.2805H207.05V61.4426H210.888C211.149 61.4426 211.403 61.4543 211.649 61.4777C211.896 61.5012 212.159 61.5402 212.44 61.5949C212.722 61.6496 212.976 61.7316 213.202 61.841C213.433 61.9465 213.644 62.0754 213.835 62.2277C214.022 62.384 214.169 62.5813 214.274 62.8195C214.384 63.0578 214.438 63.3254 214.438 63.6223C214.438 64.1223 214.302 64.5266 214.028 64.8352C213.755 65.1398 213.353 65.3684 212.821 65.5207C213.493 65.6848 214.009 65.9602 214.368 66.3469C214.728 66.7336 214.907 67.2336 214.907 67.8469C214.907 68.1633 214.858 68.4484 214.761 68.7023C214.667 68.9523 214.546 69.1594 214.397 69.3234C214.249 69.4914 214.06 69.6359 213.829 69.757C213.599 69.8781 213.374 69.9699 213.155 70.0324C212.94 70.0949 212.687 70.1457 212.394 70.1848C212.104 70.2199 211.856 70.2414 211.649 70.2492C211.548 70.2531 211.437 70.257 211.315 70.2609C211.198 70.2609 211.071 70.2609 210.935 70.2609H207.05ZM209.868 65.2102H211.14C211.655 65.2102 212.112 65.1066 212.511 64.8996C212.71 64.798 212.868 64.6535 212.985 64.466C213.106 64.2785 213.167 64.0617 213.167 63.8156C213.167 63.6203 213.146 63.4484 213.103 63.3C213.06 63.1477 212.999 63.0168 212.921 62.9074C212.847 62.802 212.741 62.7121 212.604 62.6379C212.472 62.5598 212.335 62.4973 212.194 62.4504C212.054 62.4074 211.878 62.3742 211.667 62.3508C211.456 62.3234 211.253 62.3039 211.058 62.2922C210.96 62.2883 210.851 62.2863 210.729 62.2863C210.608 62.2824 210.478 62.2805 210.337 62.2805H209.868V65.2102ZM209.868 69.423H210.565C210.831 69.423 211.062 69.4191 211.257 69.4113C211.452 69.4035 211.651 69.3898 211.854 69.3703C212.054 69.3508 212.224 69.3234 212.364 69.2883C212.509 69.2492 212.647 69.2023 212.78 69.1477C212.917 69.093 213.026 69.0266 213.108 68.9484C213.194 68.8664 213.272 68.7707 213.343 68.6613C213.409 68.552 213.456 68.427 213.483 68.2863C213.515 68.1418 213.53 67.9797 213.53 67.8C213.53 67.4992 213.462 67.2316 213.325 66.9973C213.192 66.759 213.011 66.5676 212.78 66.423C212.312 66.134 211.765 65.9895 211.14 65.9895H209.868V69.423ZM218.833 70.4191C218.208 70.4191 217.665 70.2766 217.204 69.9914C216.747 69.7063 216.392 69.3156 216.138 68.8195C215.888 68.3195 215.763 67.7512 215.763 67.1145C215.763 66.4777 215.886 65.9113 216.132 65.4152C216.378 64.9152 216.729 64.5227 217.187 64.2375C217.647 63.9484 218.192 63.8039 218.821 63.8039C219.454 63.8039 219.997 63.9484 220.45 64.2375C220.907 64.5227 221.257 64.9152 221.499 65.4152C221.745 65.9113 221.868 66.4777 221.868 67.1145C221.868 67.7434 221.745 68.3078 221.499 68.8078C221.257 69.3078 220.909 69.7023 220.456 69.9914C220.003 70.2766 219.462 70.4191 218.833 70.4191ZM218.833 69.675C219.356 69.675 219.769 69.4484 220.069 68.9953C220.374 68.5383 220.526 67.9367 220.526 67.1906C220.526 66.7297 220.474 66.2941 220.368 65.884C220.263 65.4738 220.085 65.1418 219.835 64.8879C219.589 64.6301 219.251 64.5012 218.821 64.5012C218.384 64.5012 218.04 64.634 217.79 64.8996C217.54 65.1652 217.362 65.5031 217.257 65.9133C217.155 66.3234 217.104 66.7492 217.104 67.1906C217.104 67.9406 217.259 68.5422 217.567 68.9953C217.876 69.4484 218.298 69.675 218.833 69.675ZM222.284 70.2609V69.6047H223.204L225.185 67.1789L223.11 64.6301H222.149V63.9738H225.472V64.6301H224.599L225.917 66.3996L227.247 64.6301H226.304V63.9738H229.257V64.6301H228.296L226.444 66.9094L228.63 69.6047H229.603V70.2609H226.122V69.6047H227.165L225.771 67.6828L224.247 69.6047H225.308V70.2609H222.284ZM232.749 70.2609V69.5754H233.88V64.6301H232.737V63.9738H235.14V69.5754H236.288V70.2609H232.749ZM234.413 62.8605C234.175 62.8605 233.97 62.7746 233.798 62.6027C233.63 62.4309 233.546 62.2277 233.546 61.9934C233.546 61.7512 233.63 61.5461 233.798 61.3781C233.97 61.2063 234.175 61.1203 234.413 61.1203C234.647 61.1203 234.851 61.2063 235.022 61.3781C235.198 61.55 235.286 61.7551 235.286 61.9934C235.286 62.2277 235.198 62.4309 235.022 62.6027C234.851 62.7746 234.647 62.8605 234.413 62.8605ZM239.388 70.4191C239.103 70.4191 238.81 70.3898 238.509 70.3313C238.212 70.2727 237.937 70.1809 237.683 70.0559C237.429 69.9309 237.224 69.7688 237.067 69.5695C236.915 69.3664 236.839 69.1223 236.839 68.8371C236.839 68.5832 236.919 68.3742 237.079 68.2102C237.239 68.0461 237.427 67.9641 237.642 67.9641C237.86 67.9641 238.046 68.0246 238.198 68.1457C238.354 68.2668 238.433 68.4426 238.433 68.673C238.433 68.8723 238.374 69.0383 238.257 69.1711C238.14 69.3 238.007 69.3645 237.858 69.3645C238.007 69.4738 238.208 69.5656 238.462 69.6398C238.72 69.7102 238.978 69.7453 239.235 69.7453C239.509 69.7453 239.772 69.716 240.026 69.6574C240.28 69.5949 240.489 69.4895 240.653 69.341C240.817 69.1887 240.899 68.9797 240.899 68.7141C240.899 68.5266 240.841 68.3605 240.724 68.216C240.61 68.0676 240.46 67.9504 240.272 67.8645C240.085 67.7785 239.87 67.6926 239.628 67.6066C239.39 67.5207 239.146 67.4465 238.896 67.384C238.567 67.298 238.249 67.1848 237.94 67.0441C237.636 66.8996 237.384 66.7102 237.185 66.4758C236.989 66.2414 236.892 65.9465 236.892 65.591C236.892 65.1887 237.013 64.8566 237.255 64.5949C237.501 64.3293 237.812 64.132 238.187 64.0031C238.565 63.8703 238.954 63.8039 239.353 63.8039C239.603 63.8039 239.87 63.8332 240.155 63.8918C240.444 63.9465 240.716 64.0324 240.97 64.1496C241.228 64.2668 241.438 64.4152 241.603 64.5949C241.767 64.7746 241.849 64.9895 241.849 65.2395C241.849 65.5012 241.772 65.7141 241.62 65.8781C241.472 66.0383 241.296 66.1184 241.093 66.1184C240.87 66.1184 240.681 66.052 240.524 65.9191C240.368 65.7824 240.29 65.5969 240.29 65.3625C240.29 65.2023 240.329 65.0773 240.407 64.9875C240.489 64.8938 240.599 64.802 240.735 64.7121C240.349 64.5246 239.911 64.4309 239.423 64.4309C239.021 64.4309 238.681 64.5188 238.403 64.6945C238.126 64.8703 237.987 65.1184 237.987 65.4387C237.987 65.591 238.044 65.7277 238.157 65.8488C238.274 65.966 238.429 66.0598 238.62 66.1301C238.808 66.2043 239.021 66.2824 239.259 66.3645C239.501 66.4426 239.749 66.5148 240.003 66.5813C240.257 66.6516 240.503 66.7453 240.741 66.8625C240.983 66.9758 241.2 67.1008 241.392 67.2375C241.579 67.3742 241.729 67.5539 241.843 67.7766C241.96 67.9992 242.019 68.2512 242.019 68.5324C242.019 68.9035 241.94 69.2121 241.784 69.4582C241.632 69.7004 241.427 69.8918 241.169 70.0324C240.911 70.173 240.628 70.2727 240.319 70.3313C240.011 70.3898 239.7 70.4191 239.388 70.4191ZM245.476 70.2609V69.423H246.917V62.2805H245.476V61.4426H253.444V64.8352H252.384V62.2805H248.294V65.4504H250.479V64.009H251.259V67.6477H250.479V66.1184H248.294V69.423H252.384V66.9152H253.444V70.2609H245.476ZM254.265 70.2609V69.6047H255.407V64.6301H254.265V63.9738L256.485 63.8742L256.632 65.1516C256.784 64.6984 257.046 64.3605 257.417 64.1379C257.788 63.9152 258.187 63.8039 258.612 63.8039C259.124 63.8039 259.503 63.9113 259.749 64.1262C259.999 64.3371 260.183 64.6457 260.3 65.052C260.491 64.6184 260.753 64.302 261.085 64.1027C261.417 63.9035 261.78 63.8039 262.175 63.8039C262.663 63.8039 263.048 63.9074 263.329 64.1145C263.614 64.3176 263.817 64.591 263.938 64.9348C264.06 65.2785 264.12 65.6613 264.12 66.0832V69.6047H265.198V70.2609H261.911V69.6047H262.86V66.0949C262.86 65.5871 262.761 65.2121 262.562 64.9699C262.362 64.7277 262.089 64.6066 261.741 64.6066C261.331 64.6066 261.009 64.7355 260.774 64.9934C260.54 65.2512 260.423 65.5793 260.423 65.9777V69.6047H261.431V70.2609H258.155V69.6047H259.163V66.0949C259.163 65.5871 259.063 65.2121 258.864 64.9699C258.665 64.7277 258.392 64.6066 258.044 64.6066C257.817 64.6066 257.62 64.6496 257.452 64.7355C257.284 64.8215 257.151 64.9328 257.054 65.0695C256.882 65.3156 256.774 65.6066 256.731 65.9426C256.688 66.2785 256.667 66.5734 256.667 66.8273V69.6047H257.675V70.2609H254.265ZM264.976 72.6105V71.9074H266.353V64.6301H265.216V63.9738L267.577 63.8039V64.9816C268.007 64.1965 268.644 63.8039 269.487 63.8039C269.897 63.8039 270.259 63.8957 270.571 64.0793C270.884 64.2629 271.146 64.5129 271.356 64.8293C271.571 65.1418 271.733 65.4953 271.843 65.8898C271.952 66.2805 272.007 66.6848 272.007 67.1027C272.007 67.7512 271.897 68.3254 271.679 68.8254C271.464 69.3254 271.157 69.716 270.759 69.9973C270.36 70.2785 269.888 70.4191 269.341 70.4191C268.993 70.4191 268.667 70.3371 268.362 70.173C268.062 70.0051 267.812 69.7746 267.612 69.4816V71.8957H268.907V72.6105H264.976ZM269.112 69.757C269.409 69.757 269.657 69.6711 269.856 69.4992C270.056 69.3273 270.214 69.1047 270.331 68.8313C270.452 68.5539 270.538 68.257 270.589 67.9406C270.64 67.6242 270.665 67.3215 270.665 67.0324C270.665 66.6457 270.608 66.2629 270.495 65.884C270.386 65.5012 270.216 65.1828 269.985 64.9289C269.759 64.675 269.468 64.548 269.112 64.548C268.8 64.548 268.524 64.6594 268.286 64.882C268.048 65.1047 267.862 65.4113 267.729 65.802C267.597 66.1887 267.53 66.6359 267.53 67.1438C267.53 67.4289 267.558 67.7258 267.612 68.0344C267.671 68.3391 267.761 68.6223 267.882 68.884C268.007 69.1418 268.169 69.3527 268.368 69.5168C268.571 69.677 268.819 69.757 269.112 69.757ZM275.411 70.4191C275.079 70.4191 274.769 70.3488 274.479 70.2082C274.19 70.0676 273.956 69.8586 273.776 69.5813C273.601 69.3 273.513 68.9504 273.513 68.5324V64.6301H272.317V64.3547C272.618 64.2648 272.892 64.1047 273.138 63.8742C273.384 63.6398 273.579 63.3879 273.724 63.1184C273.845 62.8996 273.933 62.7277 273.987 62.6027C274.042 62.4738 274.097 62.3449 274.151 62.216C274.206 62.0871 274.29 61.9133 274.403 61.6945C274.485 61.5266 274.558 61.4426 274.62 61.4426C274.722 61.4426 274.772 61.5109 274.772 61.6477V63.9738H277.081V64.6418H274.772V68.5676C274.772 68.9113 274.851 69.1691 275.007 69.341C275.163 69.5129 275.37 69.5988 275.628 69.5988C275.94 69.5988 276.177 69.4973 276.337 69.2941C276.497 69.0871 276.577 68.7258 276.577 68.2102V67.3664H277.28V68.0871C277.28 68.8605 277.142 69.4426 276.864 69.8332C276.591 70.2238 276.106 70.4191 275.411 70.4191ZM279.771 72.9973C279.231 72.9973 278.792 72.8742 278.452 72.6281C278.116 72.3859 277.948 72.0734 277.948 71.6906C277.948 71.4172 278.038 71.1926 278.218 71.0168C278.397 70.841 278.644 70.7531 278.956 70.7531C279.198 70.7531 279.38 70.8352 279.501 70.9992C279.626 71.1633 279.688 71.3645 279.688 71.6027C279.688 71.7473 279.64 71.8742 279.542 71.9836C279.448 72.0969 279.333 72.1867 279.196 72.2531C279.356 72.3391 279.485 72.382 279.583 72.382C279.927 72.382 280.216 72.2277 280.45 71.9191C280.688 71.6145 280.87 71.1066 280.995 70.3957L278.669 64.6301H277.503V63.9738H281.118V64.6301H280.052L281.751 69.2297L283.204 64.6301H282.231V63.9738H285.243V64.6301H284.235L282.22 70.2844C281.981 70.9523 281.741 71.4836 281.499 71.8781C281.257 72.2766 280.995 72.5617 280.714 72.7336C280.437 72.9094 280.122 72.9973 279.771 72.9973Z" fill="#1E82A9"/>
<circle cx="204.491" cy="115.197" r="6.4774" stroke="#1E82A9"/>
<circle cx="190" cy="126.468" r="2.72034" stroke="#1E82A9"/>
</svg>
