<svg width="20" height="21" viewBox="0 0 20 21" fill="none" xmlns="http://www.w3.org/2000/svg">
<path d="M13.0434 13.4385L13.1887 13.5786H13.3905H14.0865L19.2932 18.7958L18.2958 19.7932L13.0786 14.5865V13.8905V13.6887L12.9385 13.5434L12.6298 13.2233L12.302 12.8833L11.9439 13.1912C10.7274 14.2369 9.14961 14.8656 7.43282 14.8656C6.06164 14.8656 4.72125 14.459 3.58115 13.6972C2.44106 12.9355 1.55246 11.8527 1.02773 10.5859C0.503004 9.31909 0.365711 7.92513 0.633215 6.58029C0.90072 5.23546 1.56101 4.00015 2.53058 3.03058C3.50015 2.06101 4.73546 1.40072 6.08029 1.13322C7.42513 0.865711 8.81909 1.003 10.0859 1.52773C11.3527 2.05246 12.4355 2.94106 13.1972 4.08115C13.959 5.22125 14.3656 6.56164 14.3656 7.93282V7.93318C14.3668 9.58872 13.7727 11.1895 12.6916 12.4434L12.3829 12.8015L12.7233 13.1298L13.0434 13.4385ZM1.78702 7.93282C1.78702 11.0563 4.30934 13.5786 7.43282 13.5786C10.5563 13.5786 13.0786 11.0563 13.0786 7.93282C13.0786 4.80934 10.5563 2.28702 7.43282 2.28702C4.30934 2.28702 1.78702 4.80934 1.78702 7.93282Z" fill="#1E82A9" stroke="#1E82A9"/>
</svg>
